<svg xmlns="http://www.w3.org/2000/svg" version="1.1" xmlns:xlink="http://www.w3.org/1999/xlink" viewBox="0 0 200 200"><rect width="200" height="200" fill="url('#gradient')"></rect><defs><linearGradient id="gradient" gradientTransform="rotate(154 0.5 0.5)"><stop offset="0%" stop-color="#0b201d"></stop><stop offset="100%" stop-color="#0e545f"></stop></linearGradient></defs><g><g fill="#4df8df" transform="matrix(1.4635540733682706,0,0,1.4635540733682706,9.015190998135779,110.41012711499974)" stroke="#171313" stroke-width="0.5"><path d="M9.17-4.81L12.58-4.81Q12.51-3.33 11.78-2.19Q11.04-1.05 9.72-0.43Q8.40 0.20 6.70 0.20L6.70 0.20Q3.90 0.20 2.29-1.63Q0.67-3.46 0.67-6.79L0.67-6.79L0.67-7.49Q0.67-9.58 1.40-11.15Q2.13-12.71 3.50-13.57Q4.86-14.42 6.66-14.42L6.66-14.42Q9.25-14.42 10.82-13.06Q12.39-11.70 12.61-9.31L12.61-9.31L9.19-9.31Q9.15-10.61 8.54-11.17Q7.92-11.74 6.66-11.74L6.66-11.74Q5.38-11.74 4.79-10.78Q4.19-9.82 4.16-7.72L4.16-7.72L4.16-6.72Q4.16-4.44 4.73-3.47Q5.30-2.49 6.70-2.49L6.70-2.49Q7.88-2.49 8.51-3.05Q9.13-3.60 9.17-4.81L9.17-4.81ZM26.24-7.47L26.24-6.82Q26.24-4.74 25.47-3.13Q24.70-1.53 23.28-0.67Q21.86 0.20 20.04 0.20Q18.22 0.20 16.82-0.64Q15.41-1.47 14.62-3.03Q13.84-4.58 13.80-6.59L13.80-6.59L13.80-7.39Q13.80-9.48 14.57-11.08Q15.33-12.68 16.76-13.54Q18.19-14.41 20.02-14.41L20.02-14.41Q21.83-14.41 23.24-13.55Q24.66-12.70 25.44-11.11Q26.23-9.52 26.24-7.47L26.24-7.47ZM22.75-6.76L22.75-7.41Q22.75-9.53 22.05-10.63Q21.34-11.73 20.02-11.73L20.02-11.73Q17.44-11.73 17.29-7.86L17.29-7.86L17.29-6.82Q17.29-4.73 17.98-3.60Q18.67-2.48 20.04-2.48L20.04-2.48Q21.34-2.48 22.04-3.58Q22.74-4.69 22.75-6.76L22.75-6.76ZM35.73-14.22L39.16-14.22L39.16-4.91Q39.16-3.33 38.49-2.17Q37.81-1.02 36.55-0.41Q35.29 0.20 33.57 0.20L33.57 0.20Q30.98 0.20 29.48-1.15Q27.99-2.50 27.96-4.84L27.96-4.84L27.96-14.22L31.41-14.22L31.41-4.78Q31.46-2.44 33.57-2.44L33.57-2.44Q34.64-2.44 35.19-3.03Q35.73-3.61 35.73-4.93L35.73-4.93L35.73-14.22ZM53.17-14.22L53.17 0L49.77 0L44.73-8.85L44.73 0L41.30 0L41.30-14.22L44.73-14.22L49.76-5.37L49.76-14.22L53.17-14.22ZM66.22-14.22L66.22-11.57L61.95-11.57L61.95 0L58.53 0L58.53-11.57L54.34-11.57L54.34-14.22L66.22-14.22ZM72.34 0L67.67 0L67.67-14.22L72.25-14.22Q74.13-14.22 75.63-13.36Q77.14-12.51 77.98-10.95Q78.83-9.39 78.84-7.46L78.84-7.46L78.84-6.81Q78.84-4.85 78.01-3.31Q77.19-1.76 75.69-0.88Q74.19-0.01 72.34 0L72.34 0ZM72.25-11.57L71.09-11.57L71.09-2.64L72.29-2.64Q73.76-2.64 74.55-3.69Q75.34-4.74 75.34-6.81L75.34-6.81L75.34-7.42Q75.34-9.48 74.55-10.53Q73.76-11.57 72.25-11.57L72.25-11.57ZM92.64-7.47L92.64-6.82Q92.64-4.74 91.87-3.13Q91.09-1.53 89.67-0.67Q88.25 0.20 86.44 0.20Q84.62 0.20 83.21-0.64Q81.81-1.47 81.02-3.03Q80.23-4.58 80.20-6.59L80.20-6.59L80.20-7.39Q80.20-9.48 80.96-11.08Q81.73-12.68 83.16-13.54Q84.59-14.41 86.42-14.41L86.42-14.41Q88.22-14.41 89.64-13.55Q91.05-12.70 91.84-11.11Q92.63-9.52 92.64-7.47L92.64-7.47ZM89.15-6.76L89.15-7.41Q89.15-9.53 88.44-10.63Q87.73-11.73 86.42-11.73L86.42-11.73Q83.84-11.73 83.69-7.86L83.69-7.86L83.68-6.82Q83.68-4.73 84.38-3.60Q85.07-2.48 86.44-2.48L86.44-2.48Q87.73-2.48 88.44-3.58Q89.14-4.69 89.15-6.76L89.15-6.76ZM103.44-14.22L105.42-5.30L107.05-14.22L110.45-14.22L107.43 0L103.88 0L101.97-8.11L100.11 0L96.56 0L93.54-14.22L96.94-14.22L98.57-5.30L100.53-14.22L103.44-14.22ZM123.66-14.22L123.66 0L120.25 0L115.21-8.85L115.21 0L111.79 0L111.79-14.22L115.21-14.22L120.24-5.37L120.24-14.22L123.66-14.22Z"></path></g></g></svg>